<?xml version="1.0" encoding="UTF-8" standalone="no"?>
<!-- Created with Inkscape (http://www.inkscape.org/) -->

<svg
   xmlns:dc="http://purl.org/dc/elements/1.1/"
   xmlns:cc="http://creativecommons.org/ns#"
   xmlns:rdf="http://www.w3.org/1999/02/22-rdf-syntax-ns#"
   xmlns:svg="http://www.w3.org/2000/svg"
   xmlns="http://www.w3.org/2000/svg"
   xmlns:sodipodi="http://sodipodi.sourceforge.net/DTD/sodipodi-0.dtd"
   xmlns:inkscape="http://www.inkscape.org/namespaces/inkscape"
   sodipodi:docname="tor-simple-symbolic.svg"
   inkscape:export-filename="/home/sam/dev/RESOURCES/gnome-icon-theme-symbolic/src/gnome-stencils.png"
   inkscape:export-xdpi="90"
   inkscape:export-ydpi="90"
   height="16"
   id="svg7384"
   version="1.1"
   inkscape:version="0.91 r13725"
   width="16">
  <metadata
     id="metadata90">
    <rdf:RDF>
      <cc:Work
         rdf:about="">
        <dc:format>image/svg+xml</dc:format>
        <dc:type
           rdf:resource="http://purl.org/dc/dcmitype/StillImage" />
        <dc:title>Gnome Symbolic Icon Theme</dc:title>
      </cc:Work>
    </rdf:RDF>
  </metadata>
  <sodipodi:namedview
     inkscape:bbox-nodes="false"
     inkscape:bbox-paths="true"
     bordercolor="#666666"
     borderopacity="1"
     inkscape:current-layer="layer9"
     inkscape:cx="6.624275"
     inkscape:cy="8.9265114"
     gridtolerance="10"
     inkscape:guide-bbox="true"
     guidetolerance="10"
     id="namedview88"
     inkscape:object-nodes="false"
     inkscape:object-paths="false"
     objecttolerance="10"
     pagecolor="#3a3b39"
     inkscape:pageopacity="1"
     inkscape:pageshadow="2"
     showborder="false"
     showgrid="false"
     showguides="true"
     inkscape:snap-bbox="true"
     inkscape:snap-bbox-midpoints="false"
     inkscape:snap-global="true"
     inkscape:snap-grids="true"
     inkscape:snap-nodes="true"
     inkscape:snap-others="false"
     inkscape:snap-to-guides="true"
     inkscape:window-height="1053"
     inkscape:window-maximized="1"
     inkscape:window-width="2048"
     inkscape:window-x="0"
     inkscape:window-y="28"
     inkscape:zoom="45.254834">
    <inkscape:grid
       dotted="false"
       empspacing="2"
       enabled="true"
       id="grid4866"
       originx="180px"
       originy="-20px"
       snapvisiblegridlinesonly="true"
       spacingx="1px"
       spacingy="1px"
       type="xygrid"
       visible="true" />
  </sodipodi:namedview>
  <title
     id="title9167">Gnome Symbolic Icon Theme</title>
  <defs
     id="defs7386" />
  <g
     inkscape:groupmode="layer"
     id="layer9"
     inkscape:label="status"
     style="display:inline"
     transform="translate(-61.0002,-197)">
    <path
       style="display:inline;opacity:0.35;fill:#bebebe;fill-opacity:1"
       d="m 67.908986,212.32024 c -0.0073,-0.007 -0.112291,-0.0259 -0.228516,-0.0405 -0.02492,-0.003 -0.05475,-0.0113 -0.06629,-0.0181 -0.01154,-0.007 -0.08562,-0.0191 -0.164612,-0.0273 -0.138503,-0.0144 -0.211405,-0.0293 -0.618719,-0.12675 -0.23594,-0.0565 -0.600899,-0.17101 -0.628662,-0.19732 -0.01155,-0.0109 -0.03641,-0.02 -0.05524,-0.0201 -0.04772,-2.9e-4 -0.488421,-0.21621 -0.675066,-0.33076 -0.187461,-0.11505 -0.47776,-0.33657 -0.695642,-0.53083 -0.436475,-0.38914 -0.828508,-0.97036 -1.069644,-1.58583 -0.07975,-0.20355 -0.175446,-0.51086 -0.197994,-0.63583 -0.0065,-0.036 -0.0175,-0.0902 -0.02448,-0.12063 -0.007,-0.0304 -0.0179,-0.09 -0.02428,-0.13258 -0.0064,-0.0425 -0.01825,-0.11711 -0.02638,-0.16573 -0.0081,-0.0486 -0.0152,-0.37675 -0.0157,-0.7292 -8.17e-4,-0.57177 0.0087,-0.80373 0.04021,-0.98332 0.0053,-0.0304 0.01629,-0.095 0.02434,-0.14363 0.05835,-0.3524 0.202571,-0.79118 0.369724,-1.12482 0.320089,-0.6389 0.715085,-1.06436 1.796624,-1.93518 0.264689,-0.21312 0.824538,-0.59707 0.870604,-0.59707 0.01338,0 0.02433,-0.009 0.02433,-0.0197 0,-0.0108 0.02257,-0.0254 0.05016,-0.0323 0.02759,-0.007 0.07192,-0.0329 0.09851,-0.0576 0.0266,-0.0248 0.05872,-0.0451 0.07138,-0.0451 0.01266,0 0.02302,-0.0105 0.02302,-0.0234 0,-0.0129 0.01002,-0.0172 0.02225,-0.01 0.01224,0.008 0.0282,-0.002 0.03546,-0.0207 0.0073,-0.0189 0.02218,-0.0289 0.03315,-0.0221 0.01097,0.007 0.02588,-0.003 0.03315,-0.0221 0.0073,-0.0189 0.02218,-0.0289 0.03315,-0.0221 0.01096,0.007 0.02588,-0.003 0.03315,-0.0221 0.0073,-0.0189 0.0204,-0.03 0.0292,-0.0245 0.0088,0.005 0.04696,-0.0184 0.0848,-0.053 0.03784,-0.0346 0.07366,-0.058 0.0796,-0.0521 0.0059,0.006 0.02381,-0.0101 0.03973,-0.0356 0.01592,-0.0255 0.04124,-0.0463 0.05626,-0.0463 0.01503,0 0.04361,-0.0249 0.06352,-0.0553 0.01991,-0.0304 0.04777,-0.0552 0.06191,-0.0552 0.02894,0 0.300656,-0.26726 0.300656,-0.29573 0,-0.0101 0.02538,-0.0383 0.05641,-0.0627 0.03102,-0.0244 0.05133,-0.0494 0.04513,-0.0556 -0.0062,-0.006 0.01068,-0.0296 0.03751,-0.052 0.02683,-0.0224 0.0418,-0.041 0.03326,-0.0414 -0.0085,-4e-4 0.0087,-0.0268 0.03826,-0.0588 0.02958,-0.0319 0.0484,-0.0667 0.04184,-0.0773 -0.0066,-0.0106 -0.0032,-0.0193 0.0074,-0.0193 0.02507,0 0.109965,-0.15119 0.124463,-0.22165 0.0062,-0.03 0.01843,-0.0794 0.02724,-0.10981 0.0088,-0.0304 0.01651,-0.0975 0.01712,-0.14915 6.07e-4,-0.0517 0.0098,-0.0939 0.02033,-0.0939 0.01607,0 0.01415,-0.11455 -0.0083,-0.49718 -0.0059,-0.10092 -0.0695,-0.3646 -0.08791,-0.3646 -0.01094,0 -0.01417,-0.0149 -0.0072,-0.0332 0.007,-0.0182 0.0011,-0.0332 -0.01305,-0.0332 -0.01417,0 -0.0198,-0.01 -0.01251,-0.0214 0.0073,-0.0118 -0.0023,-0.0515 -0.02124,-0.0882 -0.01897,-0.0367 -0.03527,-0.0743 -0.03623,-0.0835 -9.53e-4,-0.009 -0.01283,-0.0367 -0.02639,-0.061 -0.01356,-0.0243 -0.02545,-0.0492 -0.02643,-0.0553 -0.0078,-0.0489 -0.06777,-0.17677 -0.08288,-0.17677 -0.01043,0 -0.01282,-0.01 -0.0053,-0.0221 0.0075,-0.0121 0.0025,-0.0221 -0.01105,-0.0221 -0.01359,0 -0.01856,-0.01 -0.01105,-0.0221 0.0075,-0.0122 0.0025,-0.0221 -0.01105,-0.0221 -0.01359,0 -0.01971,-0.008 -0.01361,-0.018 0.0061,-0.01 -0.0082,-0.0472 -0.0317,-0.0829 -0.05443,-0.0826 -0.05634,-0.13005 -0.0044,-0.10984 0.02127,0.008 0.04861,0.0168 0.06077,0.0189 0.01215,0.002 0.02796,0.0118 0.03513,0.0216 0.0072,0.01 0.03451,0.0193 0.06077,0.0213 0.02625,0.002 0.04773,0.0114 0.04773,0.021 0,0.01 0.0075,0.0157 0.01657,0.0135 0.02005,-0.005 0.04427,0.2228 0.30065,0.343 0.182601,0.0856 0.338293,0.2148 0.478103,0.39006 0.243566,0.30533 0.411941,0.36494 0.603044,0.68424 0.227758,0.38054 0.701333,1.31732 0.854961,1.6912 0.241937,0.58879 0.508382,1.41462 0.673914,2.08876 0.07821,0.31851 0.215628,0.99511 0.244477,1.2037 0.0084,0.0608 0.01833,0.13037 0.02206,0.15468 0.01511,0.0984 0.03537,0.2475 0.04355,0.32041 0.0048,0.0425 0.01493,0.12706 0.02257,0.18782 0.0076,0.0608 0.01883,0.15524 0.02487,0.20993 0.006,0.0547 0.01529,0.50713 0.02058,1.00541 0.0076,0.72114 0.0027,0.96459 -0.02418,1.19325 -0.04307,0.36616 -0.110205,0.73902 -0.17887,0.99345 -0.02965,0.10989 -0.0588,0.22187 -0.06477,0.24885 -0.0508,0.22957 -0.321809,0.81666 -0.508911,1.10246 -0.15223,0.23252 -0.510705,0.5998 -0.716659,0.73425 -0.224608,0.14663 -0.534057,0.28554 -0.722605,0.32437 -0.03401,0.007 -0.0867,0.0189 -0.117084,0.0264 -0.05914,0.0147 -0.985536,0.0299 -0.99898,0.0164 z"
       id="path3374"
       inkscape:connector-curvature="0"
       sodipodi:nodetypes="ccccsccsssccscscssssscsssccccccccccssssssccccsccsscscscccccscscsccccccscssssscccccccccssccc" />
    <path
       inkscape:connector-curvature="0"
       d="m 68.473478,199.52128 -1.01543,-0.67957 -0.18237,0.14037 c 0.91286,1.64289 0.43566,2.51364 -0.0137,2.82261 -0.91287,0.63194 -2.24732,1.41821 -2.90722,2.1063 -1.278,1.30594 -1.64341,2.55583 -1.53104,4.19882 0.12638,2.10652 1.65734,3.86167 3.70751,4.54977 0.89866,0.29499 1.72719,0.33716 2.65403,0.33716 1.48856,0 3.01928,-0.39297 4.12864,-1.31981 1.17956,-0.98296 1.88195,-2.45763 1.88195,-3.98824 0,-1.54471 -0.64603,-3.00555 -1.78355,-4.04468 -0.60388,-0.54762 -1.36256,-0.99661 -2.14894,-1.43196 -0.35104,-0.19669 -1.43239,-1.03903 -1.06726,-2.24668 l -0.78191,-0.10694 c 1.21764,-1.61031 1.15391,-1.82649 2.23409,-2.49611 -0.13231,-0.57122 -0.38074,-0.34174 -1.34002,-0.12305 -0.90828,0.83237 -1.0036,0.92872 -1.83478,2.28201 z m -0.80486,-0.24467 0.551939,0.68153 c 0,4.1e-4 0.883892,0.97308 0.883892,0.97328 0.491642,4.79177 1.533036,9.41959 -3.053594,9.72616 -1.355645,-0.38064 -2.561847,-1.16592 -2.632067,-2.57016 -0.15442,-2.85064 1.08963,-3.65713 2.35352,-4.69624 0.71616,-0.5898 1.69852,-0.87094 2.27422,-1.91018 0.11238,-0.22456 0.16902,-0.73005 0.0426,-1.2496 -0.0562,-0.18252 -0.32348,-0.81463 -0.42177,-0.95509 z m 1.67168,13.14486 c -5.61137,0.38351 -2.80569,0.19176 0,0 z"
       id="path2554-4"
       style="display:inline;fill:#bebebe;fill-opacity:1"
       sodipodi:nodetypes="cccccccscsccccccccccccccccccc" />
  </g>
  <g
     inkscape:groupmode="layer"
     id="layer10"
     inkscape:label="devices"
     style="display:inline"
     transform="translate(-61.0002,-197)" />
  <g
     inkscape:groupmode="layer"
     id="layer11"
     inkscape:label="apps"
     transform="translate(-61.0002,-197)" />
  <g
     inkscape:groupmode="layer"
     id="layer13"
     inkscape:label="places"
     style="display:inline"
     transform="translate(-61.0002,-197)" />
  <g
     inkscape:groupmode="layer"
     id="layer14"
     inkscape:label="mimetypes"
     transform="translate(-61.0002,-197)" />
  <g
     inkscape:groupmode="layer"
     id="layer15"
     inkscape:label="emblems"
     style="display:inline"
     transform="translate(-61.0002,-197)" />
  <g
     inkscape:groupmode="layer"
     id="g71291"
     inkscape:label="emotes"
     style="display:inline"
     transform="translate(-61.0002,-197)" />
  <g
     inkscape:groupmode="layer"
     id="g4953"
     inkscape:label="categories"
     style="display:inline"
     transform="translate(-61.0002,-197)" />
  <g
     inkscape:groupmode="layer"
     id="layer12"
     inkscape:label="actions"
     style="display:inline"
     transform="translate(-61.0002,-197)" />
</svg>
